<?xml version="1.0" encoding="UTF-8" standalone="no"?>
<!-- Created with Inkscape (http://www.inkscape.org/) -->

<svg
   version="1.1"
   id="svg112"
   width="669.9057"
   height="540.64667"
   viewBox="0 0 669.9057 540.64667"
   sodipodi:docname="logo.svg"
   inkscape:version="1.2.2 (b0a8486541, 2022-12-01)"
   inkscape:export-filename="logo.png"
   inkscape:export-xdpi="96"
   inkscape:export-ydpi="96"
   xmlns:inkscape="http://www.inkscape.org/namespaces/inkscape"
   xmlns:sodipodi="http://sodipodi.sourceforge.net/DTD/sodipodi-0.dtd"
   xmlns="http://www.w3.org/2000/svg"
   xmlns:svg="http://www.w3.org/2000/svg">
  <defs
     id="defs116" />
  <sodipodi:namedview
     id="namedview114"
     pagecolor="#ffffff"
     bordercolor="#000000"
     borderopacity="0.25"
     inkscape:showpageshadow="2"
     inkscape:pageopacity="0.0"
     inkscape:pagecheckerboard="0"
     inkscape:deskcolor="#d1d1d1"
     showgrid="false"
     inkscape:zoom="0.87413155"
     inkscape:cx="97.239369"
     inkscape:cy="367.22162"
     inkscape:window-width="1278"
     inkscape:window-height="1460"
     inkscape:window-x="1280"
     inkscape:window-y="39"
     inkscape:window-maximized="0"
     inkscape:current-layer="g118" />
  <g
     inkscape:groupmode="layer"
     inkscape:label="Image"
     id="g118"
     transform="translate(-159.99891,-73.768659)">
    <path
       style="fill:#00aad4"
       d="m 230.76871,613.72612 c -11.12149,-1.65028 -27.22255,-8.40036 -36.86953,-15.45689 -6.46995,-4.7326 -17.10276,-16.0389 -21.39781,-22.75317 -4.71395,-7.3691 -7.21165,-13.22928 -9.89981,-23.22721 l -2.15097,-8 -0.32605,-193.5 c -0.34082,-202.27139 -0.2708,-206.15791 3.96122,-219.87709 8.35273,-27.07748 30.56073,-48.076276 58.31342,-55.138296 7.94934,-2.0228 9.67496,-2.03545 272.5,-1.99634 261.74664,0.0389 264.58794,0.0604 272.94524,2.05705 18.882,4.51118 37.4857,17.58565 48.389,34.007186 2.0183,3.03975 5.2115,9.33397 7.096,13.98715 7.0071,17.30154 6.5698,2.6604 6.5698,219.96034 0,175.23645 -0.1689,196.90382 -1.5883,203.79216 -6.7571,32.79295 -28.9444,55.46045 -63.5408,64.91584 -5.9723,1.63227 -22.7027,1.75135 -267.37094,1.90299 -143.55,0.089 -263.53371,-0.2142 -266.63047,-0.67372 z M 758.89922,578.9442 c 19.0817,-5.41515 33.5196,-20.65605 36.9848,-39.04184 1.385,-7.34876 1.4008,-383.76092 0.016,-391.22702 -1.4251,-7.68536 -7.2308,-18.88233 -13.1472,-25.35583 -5.6552,-6.18773 -14.2874,-11.43682 -23.354,-14.20125 -5.7477,-1.75247 -16.9348,-1.82941 -266.00004,-1.82941 h -260 l -6.5,2.3278 c -16.5261,5.91837 -28.24122,18.48294 -32.50833,34.8655 -1.29737,4.98091 -1.49167,30.94251 -1.49167,199.3067 0,211.93967 -0.35496,199.02669 5.78291,210.37303 4.24303,7.84359 12.32518,15.91085 19.95352,19.91678 13.43069,7.05296 -7.06596,6.58504 278.26357,6.35247 205.38654,-0.16741 258.41074,-0.46833 262.00004,-1.48693 z"
       id="path280"
       sodipodi:nodetypes="sssscsssssssssssssscssscssssssss" />
    <path
       d="m 473.11788,341.7487 c -7.15017,-2.85978 -9.47383,-4.71777 -12.00167,-9.59652 -2.78545,-5.37594 -3.30817,-13.59393 -1.13357,-17.8214 0.76896,-1.49486 12.84854,-14.05684 26.84352,-27.91552 l 25.44541,-25.19758 H 404.49654 c -104.04335,0 -107.93736,-0.0832 -112.4638,-2.40361 -7.06378,-3.62111 -10.76191,-9.9195 -10.85898,-18.49421 -0.0948,-8.37443 2.38782,-13.24421 9.04042,-17.73314 l 4.52592,-3.05393 108.57784,-0.62216 108.57786,-0.62217 -24.52628,-23.76713 c -14.31086,-13.86792 -25.47302,-25.73156 -26.79933,-28.48354 -4.34472,-9.01497 -1.33843,-19.67977 7.34744,-26.06492 5.30187,-3.89752 16.68852,-3.58876 22.6894,0.61524 6.24836,4.37739 86.49766,82.79166 90.14516,88.08386 3.90585,5.66706 4.08244,16.38442 0.36877,22.38195 -3.7201,6.00791 -85.77885,86.75022 -90.49361,89.04185 -5.6095,2.72652 -13.0654,3.43037 -17.50947,1.65293 z"
       style="fill:#00aad4;stroke-width:1.25401"
       id="path386" />
    <path
       d="m 581.27506,539.92904 c -13.54606,-8.05726 -24.92354,-18.43819 -31.29805,-28.55685 -1.73782,-2.75855 -8.02523,-14.2025 -13.97203,-25.43098 -37.1112,-70.0715 -37.48943,-70.89804 -37.67108,-82.32151 -0.11099,-6.98154 0.13899,-7.92585 4.59255,-17.34737 4.12961,-8.73626 5.21091,-10.34038 8.77625,-13.01921 17.72082,-13.31481 38.08854,-11.19561 55.44736,5.76921 2.98995,2.92207 5.91416,5.53877 6.49833,5.81487 0.80462,0.38072 9.48577,-17.31831 35.8239,-73.03695 28.86596,-61.06646 35.32383,-74.16224 38.07588,-77.21336 7.83486,-8.68642 20.44628,-13.9837 31.24514,-13.12414 2.9913,0.23801 7.55983,1.68717 12.44136,3.94633 6.51214,3.01382 8.33799,4.3197 11.71733,8.38108 7.93437,9.53559 10.80467,22.72632 7.57931,34.83162 -0.85422,3.20597 -6.39759,16.07766 -12.31864,28.60372 l -10.76556,22.77469 7.29458,3.92848 c 8.68943,4.67963 12.52757,9.3361 13.55059,16.43958 0.36733,2.55026 1.24956,4.65179 1.95964,4.67035 11.9912,0.31076 14.71615,0.76849 20.38673,3.42445 8.25348,3.86578 13.98581,9.87269 16.53592,17.32822 l 1.96479,5.74404 5.20501,0.13066 c 5.99526,0.15048 14.516,3.67763 19.52118,8.08075 7.83597,6.89334 12.07115,20.24015 10.85094,34.19553 -0.58977,6.74616 -0.71693,7.05179 -21.86281,52.58923 -22.71821,48.92328 -25.1002,53.25424 -35.4821,64.52557 -25.70097,27.90173 -64.28704,39.04086 -100.92301,29.13475 -7.68587,-2.07827 -35.81059,-14.69367 -45.17351,-20.26276 z m 60.85519,-5.89227 c 12.2796,2.1435 21.92623,1.23429 34.17412,-3.22076 13.09037,-4.76132 22.80802,-11.60629 31.49538,-22.18404 4.83272,-5.88434 6.64685,-9.41371 27.34546,-53.20188 25.01263,-52.91464 24.46775,-51.26565 17.95407,-54.34462 -1.87088,-0.88435 -4.05353,-1.29392 -4.85029,-0.91007 -0.79675,0.38376 -3.53408,4.70171 -6.08288,9.59535 -6.82059,13.0955 -12.83689,16.48239 -22.67259,12.76377 -4.07909,-1.54221 -5.33683,-2.51496 -7.04699,-5.44849 -4.20756,-7.21875 -4.03949,-8.84985 2.47862,-24.06153 6.56394,-15.31868 6.6916,-17.14427 1.37459,-19.65759 -3.49886,-1.65395 -7.62183,-0.002 -9.4034,3.76649 -1.95187,4.12924 -6.99812,8.19588 -11.25178,9.06763 -5.34776,1.09603 -14.27978,-2.94995 -16.74396,-7.58464 -2.91442,-5.4815 -2.66503,-10.00207 1.04428,-18.92949 3.68477,-8.8684 3.57912,-10.67597 -0.70888,-12.12344 -2.43839,-0.82307 -2.9241,-0.48869 -6.43151,4.42783 -3.15102,4.41697 -4.57498,5.55994 -8.40342,6.74525 -11.06522,3.42592 -22.04136,-6.11308 -20.08557,-17.45577 0.44885,-2.60315 7.12607,-17.62746 19.02919,-42.81709 16.46174,-34.83684 18.26454,-39.04826 17.62294,-41.16735 -0.85498,-2.82386 -5.46252,-5.23964 -8.77884,-4.60289 -2.30183,0.44201 -3.41161,2.64561 -43.98125,87.33086 -44.51644,92.92387 -42.60777,89.39313 -48.79042,90.25475 -5.20432,0.72534 -9.77349,-2.47165 -17.67515,-12.36652 -8.70465,-10.90107 -12.69552,-15.19196 -18.24032,-19.61147 -3.5888,-2.86046 -4.69482,-3.31372 -8.07369,-3.30866 -7.57351,0.0113 -9.91174,6.57592 -5.6674,15.91124 6.29398,13.84348 44.34465,83.25869 48.67536,88.79767 7.11806,9.10403 13.41928,13.17257 37.08281,23.94353 15.49716,7.05383 21.97232,9.58251 26.61131,10.39229 z"
       style="fill:#000000"
       id="path519" />
  </g>
</svg>
